<?xml version="1.0" encoding="utf-8"?>
<!-- Generator: Adobe Illustrator 15.0.0, SVG Export Plug-In . SVG Version: 6.00 Build 0)  -->
<!DOCTYPE svg PUBLIC "-//W3C//DTD SVG 1.1//EN" "http://www.w3.org/Graphics/SVG/1.1/DTD/svg11.dtd">
<svg version="1.1" id="Layer_1" xmlns="http://www.w3.org/2000/svg" xmlns:xlink="http://www.w3.org/1999/xlink" x="0px" y="0px"
	 width="300px" height="300px" viewBox="0 0 300 300" enable-background="new 0 0 300 300" xml:space="preserve">
<path fill="#FFFFFF" d="M249.502,210.596c2.566-2.562,3.975-5.964,3.975-9.578c0-3.617-1.406-7.016-3.975-9.58L153.396,95.33
	l-45.166,45.164c-4.013,4.018-9.379,6.25-15.061,6.25c-5.69,0-11.018-2.202-14.988-6.173l-3.677-3.692
	c-8.268-8.267-8.251-21.756,0.062-30.068l69.588-69.607c-15.71-14.354-35.924-22.219-57.339-22.219
	c-22.76,0-44.142,8.869-60.241,24.961c-33.207,33.197-33.207,87.245,0,120.465l23.395,23.394l20.84-20.844
	c4.021-4.018,9.383-6.242,15.069-6.242s11.047,2.211,15.063,6.242c4.168,4.172,6.242,9.673,6.228,15.158
	c3.646-2.721,8.05-4.219,12.686-4.219c5.683,0,11.047,2.209,15.065,6.242c4.017,4.018,6.242,9.361,6.242,15.062
	c0,2.41-0.417,4.759-1.19,6.969c0.989-0.14,1.993-0.23,3.013-0.23c5.687,0,11.032,2.211,15.065,6.242
	c7.196,7.217,8.143,18.342,2.844,26.592c0.154,0,0.293-0.022,0.428-0.022c5.689,0,11.05,2.202,15.068,6.233
	c6.135,6.136,7.729,15.128,4.791,22.744l2.221,2.242c2.555,2.562,5.953,3.971,9.582,3.971c3.613,0,7.018-1.406,9.58-3.971
	c5.285-5.285,5.285-13.877,0-19.16l-55.73-55.732c-1.519-1.514-1.519-3.971,0-5.484l0.927-0.928
	c0.726-0.727,1.715-1.145,2.735-1.145l0,0c1.033,0,2.008,0.418,2.729,1.145l55.717,55.719c2.569,2.563,5.971,3.971,9.584,3.971
	c3.611,0,7.018-1.404,9.58-3.971c2.565-2.563,3.974-5.966,3.974-9.58c0-3.615-1.406-7.031-3.974-9.58L172.42,165.51
	c-0.73-0.727-1.128-1.715-1.128-2.75s0.396-2.023,1.144-2.734l0.924-0.928c1.52-1.515,3.955-1.515,5.476,0l51.499,51.498
	c2.562,2.565,5.96,3.973,9.576,3.973C243.525,214.566,246.941,213.161,249.502,210.596z"/>
<path fill="#FFFFFF" d="M175.355,272.139l-17.938,17.938c1.757,0.819,3.69,1.298,5.683,1.298c3.631,0,7.033-1.406,9.58-3.971
	C176.805,283.279,177.673,277.145,175.355,272.139z"/>
<path fill="#FFFFFF" d="M62.419,215.031c2.213,0,4.313-0.572,6.215-1.576c1.216-0.635,2.36-1.391,3.364-2.396l23.459-23.453
	c5.284-5.285,5.284-13.877,0-19.16c-2.569-2.562-5.964-3.971-9.58-3.971c-3.616,0-7.016,1.405-9.58,3.971L52.843,191.9
	c-0.989,0.988-1.761,2.146-2.396,3.353c-0.988,1.924-1.575,4.019-1.575,6.228c0,3.615,1.405,7.029,3.971,9.58
	C55.393,213.625,58.803,215.031,62.419,215.031z"/>
<path fill="#FFFFFF" d="M170.906,246.459c-2.564-2.55-5.969-3.956-9.6-3.956c-0.43,0-0.834,0.077-1.248,0.124
	c-3.137,0.293-6.072,1.576-8.328,3.848l-22.171,22.172c-1.02,1.004-1.777,2.164-2.395,3.387c-2.63,5.099-1.869,11.511,2.395,15.773
	c2.562,2.564,5.964,3.971,9.58,3.971c2.194,0,4.296-0.569,6.192-1.561c1.225-0.634,2.383-1.406,3.388-2.41l2.595-2.58l19.574-19.578
	c2.32-2.314,3.557-5.299,3.836-8.326C175.093,253.427,173.854,249.425,170.906,246.459z"/>
<path fill="#FFFFFF" d="M113.582,266.189c2.209,0,4.295-0.571,6.208-1.576c1.225-0.633,2.383-1.391,3.388-2.41l2.596-2.58
	l26.789-26.793c5.285-5.284,5.285-13.875,0-19.176c-2.561-2.549-5.958-3.954-9.576-3.954c-3.619,0-7.015,1.405-9.579,3.971
	l-7.634,7.634l-19.163,19.146l-2.592,2.596c-1.004,1.004-1.762,2.163-2.395,3.368c-2.631,5.112-1.886,11.524,2.395,15.791
	C106.551,264.783,109.951,266.189,113.582,266.189z"/>
<path fill="#FFFFFF" d="M88.01,240.618c2.21,0,4.311-0.587,6.208-1.576c1.225-0.634,2.383-1.392,3.373-2.396l2.592-2.599
	L129.42,204.8c2.562-2.563,3.971-5.964,3.971-9.577c0-3.617-1.41-7.018-3.971-9.58c-2.568-2.563-5.964-3.973-9.58-3.973
	c-3.616,0-7.015,1.406-9.58,3.973l-31.833,31.828c-1.004,1.006-1.757,2.162-2.391,3.367c-2.643,5.115-1.886,11.527,2.391,15.792
	C80.979,239.195,84.379,240.618,88.01,240.618z"/>
<path fill="#FFFFFF" d="M298.331,99.672c0-22.76-8.868-44.159-24.957-60.244c-16.081-16.085-37.479-24.954-60.228-24.954
	c-22.401,0-43.463,8.606-59.472,24.212c-0.267,0.247-0.524,0.479-0.776,0.726l-6.963,6.969l-65.902,65.915
	c-5.28,5.284-5.313,13.859-0.059,19.098l3.688,3.692c2.554,2.55,5.829,3.894,9.507,3.894c3.615,0,7.011-1.406,9.58-3.971
	l48.208-48.208c0.757-0.757,1.746-1.128,2.734-1.128c0.416,0,0.817,0.108,1.222,0.232c0.558,0.186,1.082,0.463,1.515,0.896
	l95.07,94.979l21.861-21.862C289.463,143.816,298.331,122.432,298.331,99.672z"/>
</svg>
